<?xml version="1.0" encoding="utf-8"?>
<svg xmlns="http://www.w3.org/2000/svg" width="18" height="18" fill="currentColor" viewBox="0 0 18 18" xmlns:bx="https://boxy-svg.com">
  <rect style="fill: rgb(42, 42, 42);" width="18" height="18" rx="2" ry="2"/>
  <path d="M 7 4 C 7 6.309 4.5 7.752 2.5 6.598 C 1.571 6.062 1 5.071 1 4 C 1 1.69 3.5 0.247 5.5 1.402 C 6.428 1.937 7 2.928 7 4" style="fill: rgb(0, 0, 0);"/>
  <path d="M 10 7 C 7.69 7 6.247 4.5 7.402 2.5 C 7.937 1.571 8.928 1 10 1 C 12.309 1 13.752 3.5 12.598 5.5 C 12.062 6.428 11.071 7 10 7" style="fill: rgb(0, 0, 0);"/>
  <path d="M 10 7 L 10.5 7 C 11.503 6.999 12.351 7.743 12.483 8.738 L 15.593 7.356 C 16.254 7.061 16.999 7.545 17 8.269 L 17 15.731 C 16.999 16.454 16.255 16.937 15.594 16.644 L 12.483 15.262 C 12.351 16.256 11.503 17 10.5 17 L 3 17 C 1.895 17 1 16.104 1 15 L 1 9 C 1 7.895 1.895 7 3 7 L 10 7 Z" style="fill: rgb(0, 0, 0);"/>
  <path d="M 4.344 7.528 L 7.344 12.528 L 1.344 12.528 L 4.344 7.528 Z" bx:shape="triangle 1.344 7.528 6 5 0.5 0 1@87631aba" style="fill: rgb(255, 255, 255); transform-origin: 4.344px 21.68px;" transform="matrix(0, 1, -1, 0, -8.496668, -9.680387)"/>
</svg>